<svg xmlns="http://www.w3.org/2000/svg" width="96.331" height="82.475" viewBox="0 0 96.331 82.475">
  <g id="Group_523" data-name="Group 523" transform="translate(-797.435 -2790.262)" opacity="0.75">
    <path id="path7588" d="M2493.881,352.311c-15.73,0-15.541,13.724-15.541,13.724l-.094,7.288c-1.287-.019-1.59,1.268-1.59,3.8,0,3.8,2.328,7.78,4.429,9.843A17.241,17.241,0,0,0,2485,394.6c-5.963,3.843-13.024,5.887-18.816,9.124-5.187,2.9-7.8,10.279-8.746,15.6a21.45,21.45,0,0,0-.435,3.1,2.78,2.78,0,0,0,.019.4c.114,2.2,2.612,2.9,4.448,3.332a169.1,169.1,0,0,0,29.681,3.331c.946.019,1.855.038,2.745.038s1.8-.019,2.744-.038c2.347-.076,4.789-.189,7.288-.36V404.48c0-2.593-.284-5.773,2.044-7.439.227-.095.454-.189.681-.265-1.325-.681-2.612-1.4-3.861-2.2a17.242,17.242,0,0,0,3.918-7.628c2.1-2.063,4.43-6.038,4.43-9.843,0-2.537-.3-3.824-1.59-3.8l-.095-7.288c-.038.019.151-13.7-15.579-13.7Z" transform="translate(-1659.572 2437.951)" fill="#818181"/>
    <path id="path15-6" d="M2632.516,470.547a5.328,5.328,0,0,0-5.3,5.3v3.862h-11.15a2.286,2.286,0,0,0-2.29,2.29v19.97h46.793V482a2.286,2.286,0,0,0-2.291-2.29h-11.149v-3.862a5.332,5.332,0,0,0-5.319-5.3Zm0,3.54h9.294a1.722,1.722,0,0,1,1.76,1.76v3.862h-12.834v-3.862A1.75,1.75,0,0,1,2632.516,474.087Zm-18.74,29.738v9.559a2.286,2.286,0,0,0,2.29,2.29H2658.3a2.286,2.286,0,0,0,2.29-2.29v-9.559Z" transform="translate(-1766.822 2357.062)" fill="#818181"/>
  </g>
</svg>
