<svg xmlns="http://www.w3.org/2000/svg" width="82.47" height="67.072" viewBox="0 0 82.47 67.072">
  <g id="Group_524" data-name="Group 524" transform="translate(-262.87 -461.6)" opacity="0.75">
    <path id="Path_445" data-name="Path 445" d="M277.933,468.87a2.97,2.97,0,0,0-.823,2,2.861,2.861,0,1,0,5.722,0,2.954,2.954,0,0,0-.715-1.9c-.072.608-.107,1.18-.179,1.788a2.076,2.076,0,0,1-2.289,1.824,2.037,2.037,0,0,1-1.824-2.289C277.861,469.836,277.9,469.371,277.933,468.87Z" transform="translate(37.287 19.037)" fill="#818181"/>
    <path id="Path_446" data-name="Path 446" d="M272.894,472.692a2.056,2.056,0,0,1-2.289-1.824c-.072-.5-.107-1.037-.179-1.574a2.8,2.8,0,0,0-.536,1.717,2.861,2.861,0,0,0,5.722,0,2.784,2.784,0,0,0-1.037-2.181c.071.537.107,1.073.179,1.574A2.088,2.088,0,0,1,272.894,472.692Z" transform="translate(18.382 18.934)" fill="#818181"/>
    <path id="Path_447" data-name="Path 447" d="M271.629,466.186a38.894,38.894,0,0,0-.465,6.723c7.4-.25,14.841-.179,22.279.071a33.585,33.585,0,0,0-.465-6.794C286,465.972,278.638,465.972,271.629,466.186Z" transform="translate(21.802 11.594)" fill="#818181"/>
    <path id="Path_448" data-name="Path 448" d="M271.97,490.495a1.215,1.215,0,0,0,1.073-1.359c-1.323-11.586,1.538-19.132,5.686-22.708a8.788,8.788,0,0,1,11.908,0c4.22,3.576,7.045,11.122,5.686,22.708a1.242,1.242,0,0,0,2.467.286c1.466-12.516-1.788-20.848-6.544-24.889a11.22,11.22,0,0,0-15.127,0c-4.756,4.041-8.01,12.337-6.544,24.889A1.3,1.3,0,0,0,271.97,490.495Z" transform="translate(19.386 0)" fill="#818181"/>
    <path id="Path_449" data-name="Path 449" d="M317.176,469.791a3.612,3.612,0,0,1,1.52,2.932,3.746,3.746,0,0,1-7.491,0,3.537,3.537,0,0,1,1.773-3.111c.036-.429.072-.787.072-1.216-7.491-.286-15.019-.322-22.51-.107,0,.429.036.823.072,1.252a3.625,3.625,0,0,1,1.918,3.254v.143c3.908.787,7.672,1.859,11.327,2.932,10.314,3,20.085,5.793,31.847.393-.724,1.645-1.411,3.254-2.027,4.9-11.364,4.005-20.845,1.252-30.834-1.645a112.162,112.162,0,0,0-12.956-3.147,4.99,4.99,0,0,1-1.086.143,3.768,3.768,0,0,1-1.99-.537,43.6,43.6,0,0,0-18.312,1.967c-.507-1.144-1.013-2.324-1.556-3.469a47.223,47.223,0,0,1,18.2-2.467,3.758,3.758,0,0,1,1.23-1.967c-.036-.5-.072-1-.072-1.5-7.527.322-15.019.93-22.546,1.788a110.282,110.282,0,0,1,10.567,29.86c.76,4.613,1.412,7.259,2.968,8.725a72.973,72.973,0,0,1,24.428-3.826c9.337,0,17.914,1.43,24.428,3.826,1.592-1.466,2.244-4.077,3-8.725A108.536,108.536,0,0,1,339.686,470.4c-7.491-.787-15.019-1.359-22.51-1.717A3.757,3.757,0,0,1,317.176,469.791Zm11.147,30.289c-.072.322-.109.644-.181.966-8.975,1.609-16.973-.715-25.3-3.111-8.722-2.5-17.769-5.185-28.771-3.075-.289-1.252-.615-2.467-.941-3.683,11.87-2.4,21.5.429,30.725,3.111,8.251,2.4,16.177,4.72,25.043,2.754C328.72,497.971,328.539,499.008,328.322,500.08Zm1.99-8.725c-9.88,2.432-18.493-.071-27.432-2.646-9.337-2.718-19.108-5.579-31.232-2.5-.4-1.216-.8-2.4-1.267-3.612,13.173-3.469,23.56-.429,33.475,2.468,9.084,2.61,17.733,5.149,27.721,2C331.181,488.458,330.747,489.889,330.313,491.355Z" transform="translate(2.293 17.609)" fill="#818181"/>
    <path id="Path_450" data-name="Path 450" d="M278.43,466.1a44.081,44.081,0,0,1,.429,6.83c7.51.393,15.019.965,22.565,1.788.93-1.859,1.9-3.719,2.932-5.543C299.636,467.6,289.766,466.6,278.43,466.1Z" transform="translate(40.984 11.796)" fill="#818181"/>
    <path id="Path_451" data-name="Path 451" d="M267.82,482.292c2.078,1.9,5.943,1.717,14.255,1.538H300.6c8.349.179,12.177.393,14.292-1.538a78.474,78.474,0,0,0-47.067,0Z" transform="translate(12.751 44.731)" fill="#818181"/>
    <path id="Path_452" data-name="Path 452" d="M288.761,466.1c-11.372.465-21.206,1.5-25.891,3.075q1.5,2.682,2.9,5.471c7.51-.894,15.055-1.5,22.565-1.824A47.837,47.837,0,0,1,288.761,466.1Z" transform="translate(0 11.796)" fill="#818181"/>
  </g>
</svg>
