<svg xmlns="http://www.w3.org/2000/svg" width="82.47" height="57.601" viewBox="0 0 82.47 57.601">
  <g id="g262" opacity="0.75">
    <g id="g8018" transform="translate(0 0)">
      <path id="path10407" d="M1802.094,11421.324c-3.624,0-6.346,3.3-6.346,7.088v43.426c0,3.769,2.722,7.071,6.346,7.071h69.778c3.624,0,6.346-3.3,6.346-7.071v-39.5a1.74,1.74,0,0,0-.467-1.175.956.956,0,0,0-.145-.129,1.659,1.659,0,0,0-1.272-.58h-8.2v-7.071a1.858,1.858,0,0,0-.129-.661,1.649,1.649,0,0,0-1.643-1.417l-64.269.016Zm6.765,10.824h45.954a1.637,1.637,0,0,1,.145,3.271H1809a1.64,1.64,0,0,1-.242-3.271Zm59.275,1.578h6.813v38.095c0,2.255-1.482,3.8-3.077,3.8-.048,0-.1.017-.145.017a.892.892,0,0,0-.209-.017,3.334,3.334,0,0,1-3.366-3.366v-38.529Zm-51.189,5.026c1.74-.017,3.012,1.707,3.093,3.351a8.517,8.517,0,0,1,5.8,5.429,4.229,4.229,0,0,1-2.271,5.428,9.965,9.965,0,0,1,2.835,3.993c1.724,4.641-1.514,10.2-6.3,11.211a3.806,3.806,0,0,1-2.384,3.3c-2.046.757-4.091-1.225-4.156-3.222-3.125-1-6.121-3.56-6.636-6.989a4.232,4.232,0,0,1,3-5.106,8.664,8.664,0,0,1-2.255-3.786,8.18,8.18,0,0,1,5.9-10.179c.129-1.66,1.4-3.48,3.221-3.4a.291.291,0,0,1,.161-.032Zm23.034,4.285h18.411a1.635,1.635,0,0,1,0,3.27h-18.3a1.636,1.636,0,0,1-.113-3.27Zm0,10.9h18.411a1.643,1.643,0,1,1,0,3.285h-18.3a1.644,1.644,0,0,1-.113-3.285Zm0,10.872h18.411a1.635,1.635,0,0,1,0,3.27h-18.3a1.636,1.636,0,0,1-.113-3.27Z" transform="translate(-1795.748 -11421.309)" fill="#818181"/>
      <path id="path9668-9-4" d="M1852.086,11494.2a.812.812,0,0,0-.813.813v1.931a6.921,6.921,0,0,0-4.2,1.669,5.715,5.715,0,0,0-.711,6.62,4.921,4.921,0,0,0,1.945,1.713,15.548,15.548,0,0,0,2.961,1.089v6.213h-.029a3.553,3.553,0,0,1-1.394-.754,3.049,3.049,0,0,1-.8-1.061,16.56,16.56,0,0,1-.624-1.669,1.419,1.419,0,0,0-.566-.784,1.745,1.745,0,0,0-1.016-.275,1.675,1.675,0,0,0-1.234.508,1.585,1.585,0,0,0-.494,1.146,4.535,4.535,0,0,0,.363,1.757,5.97,5.97,0,0,0,1.147,1.728,6.375,6.375,0,0,0,1.931,1.379,8.071,8.071,0,0,0,2.7.7v1.931a.813.813,0,1,0,1.626,0v-1.931a8.321,8.321,0,0,0,3.353-.988,5.527,5.527,0,0,0,2.09-2.162,5.855,5.855,0,0,0,.711-2.831,5.513,5.513,0,0,0-.45-2.221,4.727,4.727,0,0,0-1.263-1.742,5.568,5.568,0,0,0-1.742-1.075c-.653-.246-1.524-.521-2.628-.826l-.073-.029v-5.517c.029,0,.044.015.073.015a3.046,3.046,0,0,1,2.12,2.207,1.647,1.647,0,0,0,1.684,1.407,1.661,1.661,0,0,0,1.669-1.626,3.276,3.276,0,0,0-.334-1.32,5.779,5.779,0,0,0-.915-1.395,5.065,5.065,0,0,0-1.771-1.335,8.3,8.3,0,0,0-2.511-.566v-1.931a.806.806,0,0,0-.813-.784Zm-.827,5.313v5.08a5.4,5.4,0,0,1-1.757-.972,2.477,2.477,0,0,1,.044-3.237,3.566,3.566,0,0,1,1.713-.871Zm1.64,9.015.073.028a5.849,5.849,0,0,1,2.09,1.075,2.246,2.246,0,0,1,.711,1.785,2.77,2.77,0,0,1-.726,1.888,3.663,3.663,0,0,1-2.076,1.074.138.138,0,0,0-.073.014v-5.864Z" transform="translate(-1831.461 -11472.613)" fill="#818181"/>
    </g>
  </g>
</svg>
