<svg xmlns="http://www.w3.org/2000/svg" width="58.687" height="82.47" viewBox="0 0 58.687 82.47">
  <g id="g32" transform="translate(0 1)" opacity="0.75">
    <g id="g9440" transform="translate(0 -1)">
      <path id="path9269" d="M-1541.919,6036.846a6.7,6.7,0,0,0-6.673,6.72v64.163a6.715,6.715,0,0,0,6.673,6.719h45.341a6.7,6.7,0,0,0,6.673-6.719v-64.163a6.715,6.715,0,0,0-6.673-6.72h-8.463V6042a1.789,1.789,0,0,1-1.689,1.835h-25.087a1.7,1.7,0,0,1-1.572-1.835v-5.153Zm14.835,8.4c.351-.017.636.286.284.994l-1.84,2.745-1.923,2.61-2.024,2.509-2.141,2.409a1.169,1.169,0,0,1-1.756.05l-1.371-1.549-1.338-1.583-1.3-1.634-1.288-1.768c-.251-.505.251-.724.7-.488l1.622,1.2,1.606,1.313,1.555,1.364.552.522,1.288-1.515,2.208-2.358,2.308-2.256,2.375-2.358a1.109,1.109,0,0,1,.485-.2Zm5.3,4.547h24.518a1.329,1.329,0,0,1,1.338,1.313,1.329,1.329,0,0,1-1.338,1.313h-24.518a1.329,1.329,0,0,1-1.338-1.313A1.329,1.329,0,0,1-1521.783,6049.8Zm-5.185,11.839c.351-.017.636.286.284.977l-1.957,2.745-1.923,2.61-2.024,2.509-2.141,2.408a1.169,1.169,0,0,1-1.756.05l-1.371-1.549-1.338-1.583-1.3-1.634-1.288-1.768c-.251-.505.251-.725.7-.489l1.622,1.2,1.606,1.313,1.555,1.364.552.522,1.288-1.515,2.208-2.358,2.308-2.257,2.509-2.358a.865.865,0,0,1,.468-.185Zm5.185,4.53h24.518a1.329,1.329,0,0,1,1.338,1.313,1.329,1.329,0,0,1-1.338,1.313h-24.518a1.329,1.329,0,0,1-1.338-1.313A1.329,1.329,0,0,1-1521.783,6066.166ZM-1538.24,6078c1.07-.017,2.442.842,4.047,2.526l.418.455.334-.2a24.457,24.457,0,0,1,4.549-2.291,3.434,3.434,0,0,1,.368-.118h0c.418.084-.134.505-.5.741a24.212,24.212,0,0,0-4.014,3.031l.2.27a28.737,28.737,0,0,1,3.5,6.046,11.759,11.759,0,0,1,.4,1.111.06.06,0,0,0,.017.034h0c0,.034,0,.05-.017.067-.017.034-.05.034-.1.034s-.1-.051-.686-1.044a26.25,26.25,0,0,0-4.6-5.237c-.1.118-.217.236-.318.371-.4.438-1,1.112-1.422,1.617a16.961,16.961,0,0,0-1.639,2.458,5.509,5.509,0,0,1-.786,1.229.879.879,0,0,1-.585.286.648.648,0,0,1-.268-.034,1.281,1.281,0,0,1-.635-1.01,1.665,1.665,0,0,1-.033-.54,1.966,1.966,0,0,1,.1-.589,6.938,6.938,0,0,1,1.673-2.627,23.479,23.479,0,0,1,2.475-2.223c.134-.1.251-.2.251-.2,0-.017-.518-.42-.953-.741a18.015,18.015,0,0,0-1.723-1.112,4.49,4.49,0,0,1-1.3-.876.786.786,0,0,1-.167-.724,1.47,1.47,0,0,1,1.422-.708Zm16.457,4.53h24.518a1.329,1.329,0,0,1,1.338,1.313,1.329,1.329,0,0,1-1.338,1.313h-24.518a1.329,1.329,0,0,1-1.338-1.313A1.329,1.329,0,0,1-1521.783,6082.535Zm-5.185,11.822c.351-.017.636.287.284.994l-1.957,2.745-1.923,2.61-2.024,2.51-2.141,2.408a1.169,1.169,0,0,1-1.756.05l-1.371-1.549-1.338-1.583-1.3-1.633-1.288-1.768c-.251-.505.251-.724.7-.489l1.622,1.2,1.606,1.313,1.555,1.364.552.5,1.288-1.515,2.208-2.358,2.308-2.256,2.509-2.358a1.029,1.029,0,0,1,.468-.185Zm5.185,4.547h24.518a1.329,1.329,0,0,1,1.338,1.313,1.329,1.329,0,0,1-1.338,1.313h-24.518a1.329,1.329,0,0,1-1.338-1.313A1.329,1.329,0,0,1-1521.783,6098.9Z" transform="translate(1548.592 -6031.979)" fill="#818181"/>
      <path id="rect9271" d="M-1482.164,6016.877h18.686a1.209,1.209,0,0,1,1.206,1.206v6.63a1.21,1.21,0,0,1-1.206,1.206h-18.686a1.209,1.209,0,0,1-1.206-1.206v-6.63A1.209,1.209,0,0,1-1482.164,6016.877Z" transform="translate(1502.173 -6016.877)" fill="#818181"/>
    </g>
  </g>
</svg>
