<svg xmlns="http://www.w3.org/2000/svg" width="82.66" height="73.699" viewBox="0 0 82.66 73.699">
  <g id="Group_525" data-name="Group 525" transform="translate(-67.76 -460.7)" opacity="0.75">
    <path id="Path_493" data-name="Path 493" d="M121.194,464.833v-4.1h-1.015v3.553l-.145-.145.145.326v49.121h-1.233c-1.378,2.1-2.719,4.241-4.169,6.271H102.452c-1.305-1.7-2.574-3.335-3.806-5.039h-.072v-.145c32.082-8.845,18.669-33.061-10.477-49.737V460.7h-.979v3.625l-.326-.218.326.616V512H69.283v3.19h3.734v4.568H67.76v2.574h76.78l-.072.145a23.235,23.235,0,0,0,3.553-8.918H135.332C162.956,504.02,149.325,480.928,121.194,464.833Zm-33.134,1.7c8.374,15.117,8.664,30.306,1.233,45.5H88.061ZM77.983,519.5H74.865v-3.118h3.118Zm5.8,0H80.665v-3.118h3.118Zm5.8,0H86.5v-3.118h3.081Zm5.836,0H92.3v-3.118H95.42Zm25.775-53.289c8.773,15.806,8.918,31.611.616,47.417h-.616ZM145.3,519.826H119.273l.689-1.486h25.956C145.7,518.811,145.519,519.282,145.3,519.826Zm1.631-4.5a14.37,14.37,0,0,1-.471,1.486H120.723l.689-1.486Z" transform="translate(0 0)" fill="#818181"/>
    <path id="Path_494" data-name="Path 494" d="M67.76,480.323c8.664,0,10.549,3.879,10.44,8.845h55.791A47.6,47.6,0,0,0,144.54,477.93H67.76Zm69.856,4.713a49.183,49.183,0,0,1-3.879,3.408H78.962a9.872,9.872,0,0,0-.544-3.408Z" transform="translate(0 45.231)" fill="#818181"/>
  </g>
</svg>
