<svg xmlns="http://www.w3.org/2000/svg" width="255.107" height="42.531" viewBox="0 0 255.107 42.531">
  <g id="Group_11" data-name="Group 11" transform="translate(0 0)">
    <g id="Group_6" data-name="Group 6" transform="translate(63.217 12.18)">
      <path id="Path_1" data-name="Path 1" d="M71.37,33.86a8.8,8.8,0,0,1-4.35-.99,6.675,6.675,0,0,1-2.72-2.8,10.164,10.164,0,0,1-1.06-4.25q-.03-1.32-.03-2.82c0-1,0-1.94.03-2.85a10.078,10.078,0,0,1,1.06-4.24,6.627,6.627,0,0,1,2.73-2.77,8.978,8.978,0,0,1,4.34-.98,9.488,9.488,0,0,1,3.53.6,7.678,7.678,0,0,1,2.47,1.52,6.579,6.579,0,0,1,1.45,1.91,4.556,4.556,0,0,1,.51,1.75.516.516,0,0,1-.14.44.652.652,0,0,1-.46.17H77.02a.62.62,0,0,1-.42-.12,1.126,1.126,0,0,1-.25-.42,5.13,5.13,0,0,0-.85-1.54,4.682,4.682,0,0,0-1.59-1.25,5.7,5.7,0,0,0-2.53-.5,5.256,5.256,0,0,0-3.72,1.3,5.938,5.938,0,0,0-1.52,4.28q-.09,2.685,0,5.37A6.055,6.055,0,0,0,67.67,30a5.245,5.245,0,0,0,3.7,1.31,6.022,6.022,0,0,0,2.73-.6,4.419,4.419,0,0,0,1.89-1.82,6.268,6.268,0,0,0,.69-3.12V24.5H72.34a.657.657,0,0,1-.48-.2.719.719,0,0,1-.19-.53v-.96a.719.719,0,0,1,.19-.53.625.625,0,0,1,.48-.2h6.54a.618.618,0,0,1,.49.2.752.752,0,0,1,.17.53V25.7a9.075,9.075,0,0,1-.97,4.31,6.8,6.8,0,0,1-2.82,2.85,9.08,9.08,0,0,1-4.4,1.01Z" transform="translate(-63.21 -12.15)" fill="#fff"/>
      <path id="Path_2" data-name="Path 2" d="M90.98,33.86a9.363,9.363,0,0,1-4.25-.89,6.112,6.112,0,0,1-2.72-2.74,11.161,11.161,0,0,1-1.07-4.66q-.03-1.32-.03-2.55c0-.82,0-1.66.03-2.55a10.778,10.778,0,0,1,1.11-4.63,6.463,6.463,0,0,1,2.78-2.77,8.969,8.969,0,0,1,4.15-.92,8.814,8.814,0,0,1,4.12.92,6.54,6.54,0,0,1,2.79,2.77,10.365,10.365,0,0,1,1.1,4.63q.06,1.32.06,2.55c0,.82-.02,1.66-.06,2.55a10.721,10.721,0,0,1-1.06,4.66,6.182,6.182,0,0,1-2.73,2.74,9.32,9.32,0,0,1-4.22.89Zm0-2.57a4.884,4.884,0,0,0,3.6-1.39,6.5,6.5,0,0,0,1.52-4.49q.06-1.35.06-2.43c0-.72-.02-1.51-.06-2.4a7.689,7.689,0,0,0-.74-3.38,4.389,4.389,0,0,0-1.81-1.9,5.8,5.8,0,0,0-5.14,0,4.391,4.391,0,0,0-1.81,1.9,8.108,8.108,0,0,0-.77,3.38q-.03,1.32-.03,2.4c0,.72,0,1.52.03,2.43a6.455,6.455,0,0,0,1.53,4.49,4.963,4.963,0,0,0,3.61,1.39Z" transform="translate(-63.21 -12.15)" fill="#fff"/>
      <path id="Path_3" data-name="Path 3" d="M103.93,33.56a.588.588,0,0,1-.49-.2.707.707,0,0,1-.17-.5V13.15a.756.756,0,0,1,.17-.5.632.632,0,0,1,.49-.2h1.53a.657.657,0,0,1,.48.2.678.678,0,0,1,.19.5V30.94h9.6a.656.656,0,0,1,.51.2.762.762,0,0,1,.19.53v1.21a.668.668,0,0,1-.7.7h-11.8Z" transform="translate(-63.21 -12.15)" fill="#fff"/>
      <path id="Path_4" data-name="Path 4" d="M120.21,33.56a.588.588,0,0,1-.49-.2.707.707,0,0,1-.17-.5V13.18a.8.8,0,0,1,.17-.53.632.632,0,0,1,.49-.2h6.56a10.427,10.427,0,0,1,4.8.94,5.7,5.7,0,0,1,2.66,2.76,11,11,0,0,1,.87,4.48c.02.9.03,1.7.03,2.38s-.01,1.47-.03,2.35a11.841,11.841,0,0,1-.88,4.6,5.445,5.445,0,0,1-2.6,2.71,10.58,10.58,0,0,1-4.7.89h-6.71Zm2.17-2.57h4.4a7.417,7.417,0,0,0,3.18-.57,3.483,3.483,0,0,0,1.72-1.84,9,9,0,0,0,.56-3.35c.04-.6.06-1.13.06-1.58V22.29c0-.45-.02-.97-.06-1.55a6.5,6.5,0,0,0-1.33-4.33c-.85-.93-2.27-1.4-4.28-1.4h-4.25V30.99Z" transform="translate(-63.21 -12.15)" fill="#fff"/>
      <path id="Path_5" data-name="Path 5" d="M140.14,33.56a.588.588,0,0,1-.49-.2.707.707,0,0,1-.17-.5V13.18a.8.8,0,0,1,.17-.53.632.632,0,0,1,.49-.2h11.94a.618.618,0,0,1,.49.2.752.752,0,0,1,.17.53v1.15a.729.729,0,0,1-.17.51.657.657,0,0,1-.49.18h-9.83v6.6h9.2a.618.618,0,0,1,.49.2.752.752,0,0,1,.17.53v1.12a.756.756,0,0,1-.17.5.632.632,0,0,1-.49.2h-9.2v6.84h10.06a.642.642,0,0,1,.49.18.686.686,0,0,1,.17.51v1.18a.756.756,0,0,1-.17.5.632.632,0,0,1-.49.2H140.14Z" transform="translate(-63.21 -12.15)" fill="#fff"/>
      <path id="Path_6" data-name="Path 6" d="M157.66,33.56a.588.588,0,0,1-.49-.2.707.707,0,0,1-.17-.5V13.18a.8.8,0,0,1,.17-.53.632.632,0,0,1,.49-.2h1.33a.739.739,0,0,1,.52.17.707.707,0,0,1,.2.26l9.6,15.37V13.18a.8.8,0,0,1,.17-.53.632.632,0,0,1,.49-.2h1.39a.693.693,0,0,1,.51.2.762.762,0,0,1,.19.53V32.83a.718.718,0,0,1-.19.51.6.6,0,0,1-.48.21H170a.619.619,0,0,1-.48-.18c-.11-.12-.18-.2-.22-.24l-9.57-15.22V32.86a.678.678,0,0,1-.19.5.662.662,0,0,1-.51.2h-1.39Z" transform="translate(-63.21 -12.15)" fill="#fff"/>
      <path id="Path_7" data-name="Path 7" d="M184.85,33.56a.588.588,0,0,1-.49-.2.707.707,0,0,1-.17-.5V13.18a.8.8,0,0,1,.17-.53.632.632,0,0,1,.49-.2h11.8a.693.693,0,0,1,.51.2.762.762,0,0,1,.19.53v1.21a.657.657,0,0,1-.19.51.706.706,0,0,1-.51.18h-9.66V22.1h9.08a.656.656,0,0,1,.51.2.762.762,0,0,1,.19.53v1.21a.668.668,0,0,1-.7.7h-9.08v8.14a.668.668,0,0,1-.7.7h-1.45Z" transform="translate(-63.21 -12.15)" fill="#fff"/>
      <path id="Path_8" data-name="Path 8" d="M201.73,33.56a.588.588,0,0,1-.49-.2.707.707,0,0,1-.17-.5V13.18a.8.8,0,0,1,.17-.53.632.632,0,0,1,.49-.2h7.06a7.808,7.808,0,0,1,5.18,1.6,5.83,5.83,0,0,1,1.91,4.73,6.062,6.062,0,0,1-1.11,3.78,5.708,5.708,0,0,1-3.02,2.03l4.45,8.02a.747.747,0,0,1,.09.33.55.55,0,0,1-.19.42.592.592,0,0,1-.42.18h-1.39a.886.886,0,0,1-.72-.27,4.687,4.687,0,0,1-.4-.54l-4.19-7.66h-5.06v7.78a.668.668,0,0,1-.7.7h-1.47Zm2.17-11.04h4.77a4.767,4.767,0,0,0,3.24-.95,3.576,3.576,0,0,0,1.07-2.82,3.57,3.57,0,0,0-1.05-2.8,4.709,4.709,0,0,0-3.25-.97h-4.77v7.54Z" transform="translate(-63.21 -12.15)" fill="#fff"/>
      <path id="Path_9" data-name="Path 9" d="M227.27,33.86a9.363,9.363,0,0,1-4.25-.89,6.112,6.112,0,0,1-2.72-2.74,11.161,11.161,0,0,1-1.07-4.66q-.03-1.32-.03-2.55c0-.82,0-1.66.03-2.55a10.778,10.778,0,0,1,1.11-4.63,6.463,6.463,0,0,1,2.78-2.77,8.969,8.969,0,0,1,4.15-.92,8.843,8.843,0,0,1,4.12.92,6.54,6.54,0,0,1,2.79,2.77,10.365,10.365,0,0,1,1.1,4.63q.06,1.32.06,2.55c0,.82-.02,1.66-.06,2.55a10.721,10.721,0,0,1-1.06,4.66,6.182,6.182,0,0,1-2.73,2.74,9.32,9.32,0,0,1-4.22.89Zm0-2.57a4.9,4.9,0,0,0,3.6-1.39,6.454,6.454,0,0,0,1.52-4.49q.06-1.35.06-2.43c0-.72-.02-1.51-.06-2.4a7.689,7.689,0,0,0-.74-3.38,4.334,4.334,0,0,0-1.81-1.9,5.8,5.8,0,0,0-5.14,0,4.335,4.335,0,0,0-1.81,1.9,8.108,8.108,0,0,0-.77,3.38q-.03,1.32-.03,2.4c0,.72,0,1.52.03,2.43a6.455,6.455,0,0,0,1.53,4.49,4.971,4.971,0,0,0,3.62,1.39Z" transform="translate(-63.21 -12.15)" fill="#fff"/>
      <path id="Path_10" data-name="Path 10" d="M246.93,33.86a8.8,8.8,0,0,1-4.35-.99,6.675,6.675,0,0,1-2.72-2.8,10.164,10.164,0,0,1-1.06-4.25q-.03-1.32-.03-2.82c0-1,0-1.94.03-2.85a10.078,10.078,0,0,1,1.06-4.24,6.627,6.627,0,0,1,2.73-2.77,8.978,8.978,0,0,1,4.34-.98,9.488,9.488,0,0,1,3.53.6,7.678,7.678,0,0,1,2.47,1.52,6.579,6.579,0,0,1,1.45,1.91,4.556,4.556,0,0,1,.51,1.75.516.516,0,0,1-.14.44.652.652,0,0,1-.46.17h-1.71a.62.62,0,0,1-.42-.12,1.126,1.126,0,0,1-.25-.42,5.13,5.13,0,0,0-.85-1.54,4.682,4.682,0,0,0-1.59-1.25,5.7,5.7,0,0,0-2.53-.5,5.256,5.256,0,0,0-3.72,1.3,5.938,5.938,0,0,0-1.52,4.28q-.09,2.685,0,5.37A6.055,6.055,0,0,0,243.23,30a5.245,5.245,0,0,0,3.7,1.31,6.022,6.022,0,0,0,2.73-.6,4.419,4.419,0,0,0,1.89-1.82,6.268,6.268,0,0,0,.69-3.12V24.5H247.9a.657.657,0,0,1-.48-.2.762.762,0,0,1-.19-.53v-.96a.719.719,0,0,1,.19-.53.641.641,0,0,1,.48-.2h6.54a.618.618,0,0,1,.49.2.752.752,0,0,1,.17.53V25.7a9.075,9.075,0,0,1-.97,4.31,6.8,6.8,0,0,1-2.82,2.85,9.08,9.08,0,0,1-4.4,1.01Z" transform="translate(-63.21 -12.15)" fill="#fff"/>
    </g>
    <path id="Path_11" data-name="Path 11" d="M19.34,13.45a7.524,7.524,0,0,1,1.68,4.97,8.531,8.531,0,0,1-1.78,5.01,8.366,8.366,0,0,1-4.23,2.84,8.715,8.715,0,0,1-5.39-.2,9.364,9.364,0,0,1-4.11-3.1,11.416,11.416,0,0,1-2.16-4.96,11.975,11.975,0,0,1,.39-5.7A11.485,11.485,0,0,1,6.52,7.77a13.666,13.666,0,0,1,9.81-3.98,13.4,13.4,0,0,1,5.34,1.26,15.125,15.125,0,0,1,4.34,3.12,17.573,17.573,0,0,1,3.12,4.45,20.076,20.076,0,0,1,1.77,5.41,19.524,19.524,0,0,1,.16,5.86,17.87,17.87,0,0,1-1.64,5.46,21.221,21.221,0,0,1-3.02,4.67,22.352,22.352,0,0,1-4.07,3.71,24.686,24.686,0,0,1-4.86,2.66,27.3,27.3,0,0,1-5.37,1.57c-.9.17-1.81.29-2.72.37a20.617,20.617,0,0,0,6.32-.16,22.521,22.521,0,0,0,5.9-1.92,22.882,22.882,0,0,0,9.15-8.01,22.236,22.236,0,0,0,2.7-5.62c.08-.25.15-.5.22-.75a17.732,17.732,0,0,0,1.92,4.31,21.014,21.014,0,0,0,2.84,3.65,20.188,20.188,0,0,0,2.02,1.79,27.728,27.728,0,0,1-1.99-3.21,26.581,26.581,0,0,1-1.54-3.49,20.009,20.009,0,0,1-.95-3.73,16.731,16.731,0,0,1-.11-4c.12-1.34.3-2.66.55-3.98.12-.65.21-1.31.38-1.94a4.1,4.1,0,0,1,.26-.77,1.15,1.15,0,0,1,.47-.57,2,2,0,0,1,.84-.12,7.3,7.3,0,0,1,.94.07c.31.04.63.08.94.09s.65,0,.97,0a22.13,22.13,0,0,0,3.81-.27,9.576,9.576,0,0,0,5.87-3.46c.19-.24.37-.49.54-.74a21.791,21.791,0,0,1-4.8,2.04,11.855,11.855,0,0,1-5.29.4,7.36,7.36,0,0,1-2.62-1.01,17.947,17.947,0,0,1,7.41-6.55,13.966,13.966,0,0,1,4.94-1.3,16.173,16.173,0,0,1,9.85,2.63q.27.18.54.39a9.536,9.536,0,0,0-2.21-2.48A13.471,13.471,0,0,0,56.3,1.84,17.171,17.171,0,0,0,52.89.74,16.032,16.032,0,0,0,49.24.38a13.14,13.14,0,0,0-3.57.59,16.831,16.831,0,0,0-3.24,1.39,17.493,17.493,0,0,0-2.86,2,18.039,18.039,0,0,0-2.4,2.54,20.986,20.986,0,0,0-1.93,3,25.257,25.257,0,0,0-1.47,3.37c-.1.29-.2.58-.29.87a22.372,22.372,0,0,0-1.74-4.27,21.6,21.6,0,0,0-2.52-3.73,19.543,19.543,0,0,0-3.17-3,16.21,16.21,0,0,0-3.82-2.11A16.386,16.386,0,0,0,17.82.04a17.4,17.4,0,0,0-4.67.21A16.605,16.605,0,0,0,8.88,1.61a15.642,15.642,0,0,0-6.43,5.6A15.167,15.167,0,0,0,.58,11.25,16.081,16.081,0,0,0,0,15.97a14.627,14.627,0,0,0,.91,4.58,14,14,0,0,0,2.14,3.81,12.758,12.758,0,0,0,3.1,2.86,10.315,10.315,0,0,0,3.97,1.56,10.755,10.755,0,0,0,4.48-.27,10.219,10.219,0,0,0,3.76-1.87,9.437,9.437,0,0,0,2.53-3.14,9.283,9.283,0,0,0,1.01-4.33,7.975,7.975,0,0,0-1.23-4.12,8.249,8.249,0,0,0-1.34-1.6c.39.47.51.47,0,0h0Z" transform="translate(0.007 0.03)" fill="#fff"/>
  </g>
</svg>
